<mxfile host="app.diagrams.net" modified="2022-07-01T12:33:51.701Z" agent="5.0 (Windows NT 10.0; Win64; x64) AppleWebKit/537.36 (KHTML, like Gecko) Chrome/103.0.0.0 Safari/537.36" etag="6bJr5iQj4ifmReT3X3N3" version="20.0.3" type="github">
  <diagram id="PkDQmxIGIWsEDzeS_bdA" name="Page-1">
    <mxGraphModel dx="1422" dy="762" grid="1" gridSize="10" guides="1" tooltips="1" connect="1" arrows="1" fold="1" page="1" pageScale="1" pageWidth="827" pageHeight="1169" math="0" shadow="0">
      <root>
        <mxCell id="0" />
        <mxCell id="1" parent="0" />
        <mxCell id="SztDgOujnsKvbNPGTbHN-4" style="edgeStyle=orthogonalEdgeStyle;rounded=0;orthogonalLoop=1;jettySize=auto;html=1;entryX=0;entryY=0.5;entryDx=0;entryDy=0;curved=1;" edge="1" parent="1" source="SztDgOujnsKvbNPGTbHN-1" target="SztDgOujnsKvbNPGTbHN-2">
          <mxGeometry relative="1" as="geometry" />
        </mxCell>
        <mxCell id="SztDgOujnsKvbNPGTbHN-5" style="edgeStyle=orthogonalEdgeStyle;rounded=0;orthogonalLoop=1;jettySize=auto;html=1;curved=1;" edge="1" parent="1" source="SztDgOujnsKvbNPGTbHN-1" target="SztDgOujnsKvbNPGTbHN-3">
          <mxGeometry relative="1" as="geometry" />
        </mxCell>
        <mxCell id="SztDgOujnsKvbNPGTbHN-1" value="Main&lt;br&gt;1.0.0" style="ellipse;whiteSpace=wrap;html=1;aspect=fixed;" vertex="1" parent="1">
          <mxGeometry x="80" y="160" width="80" height="80" as="geometry" />
        </mxCell>
        <mxCell id="SztDgOujnsKvbNPGTbHN-7" value="Version check: pass" style="edgeStyle=orthogonalEdgeStyle;curved=1;rounded=0;orthogonalLoop=1;jettySize=auto;html=1;entryX=0.5;entryY=0;entryDx=0;entryDy=0;" edge="1" parent="1" source="SztDgOujnsKvbNPGTbHN-2" target="SztDgOujnsKvbNPGTbHN-6">
          <mxGeometry relative="1" as="geometry" />
        </mxCell>
        <mxCell id="SztDgOujnsKvbNPGTbHN-2" value="Feature 1&lt;br&gt;1.1.0" style="ellipse;whiteSpace=wrap;html=1;aspect=fixed;" vertex="1" parent="1">
          <mxGeometry x="240" y="80" width="80" height="80" as="geometry" />
        </mxCell>
        <mxCell id="SztDgOujnsKvbNPGTbHN-9" value="version check: pass" style="edgeStyle=orthogonalEdgeStyle;curved=1;rounded=0;orthogonalLoop=1;jettySize=auto;html=1;entryX=0.5;entryY=1;entryDx=0;entryDy=0;" edge="1" parent="1" source="SztDgOujnsKvbNPGTbHN-3" target="SztDgOujnsKvbNPGTbHN-8">
          <mxGeometry x="-0.6186" relative="1" as="geometry">
            <Array as="points">
              <mxPoint x="600" y="290" />
            </Array>
            <mxPoint as="offset" />
          </mxGeometry>
        </mxCell>
        <mxCell id="SztDgOujnsKvbNPGTbHN-3" value="Feature 2&lt;br&gt;1.1.0" style="ellipse;whiteSpace=wrap;html=1;aspect=fixed;" vertex="1" parent="1">
          <mxGeometry x="240" y="240" width="80" height="80" as="geometry" />
        </mxCell>
        <mxCell id="SztDgOujnsKvbNPGTbHN-6" value="Main&lt;br&gt;1.1.0" style="ellipse;whiteSpace=wrap;html=1;aspect=fixed;" vertex="1" parent="1">
          <mxGeometry x="400" y="170" width="80" height="80" as="geometry" />
        </mxCell>
        <mxCell id="SztDgOujnsKvbNPGTbHN-8" value="Main&lt;br&gt;1.1.0" style="ellipse;whiteSpace=wrap;html=1;aspect=fixed;" vertex="1" parent="1">
          <mxGeometry x="560" y="170" width="80" height="80" as="geometry" />
        </mxCell>
      </root>
    </mxGraphModel>
  </diagram>
</mxfile>
